<svg width="400" height="250" viewBox="0 0 200 150" fill="none" xmlns="http://www.w3.org/2000/svg">
  <circle cx="100" cy="55" r="30" fill="#6366F1" opacity="0.2">
    <animate attributeName="opacity" values="0.1;0.3;0.1" dur="4s" repeatCount="indefinite" />
  </circle>

  <g transform="translate(75, 30) scale(0.5)">
    <rect width="100" height="100" rx="28" fill="#0F172A"/>
    <path d="M50 15L80.3 32.5V67.5L50 85L19.7 67.5V32.5L50 15Z" stroke="white" stroke-width="1.5" stroke-linejoin="round" opacity="0.3"/>
    <path d="M50 25L71.6 37.5V62.5L50 75L28.4 62.5V37.5L50 25Z" stroke="white" stroke-width="2.5" stroke-linejoin="round"/>
    <circle cx="50" cy="50" r="14" fill="#6366F1">
      <animate attributeName="opacity" values="1;0.5;1" dur="4s" repeatCount="indefinite" />
    </circle>
    <path d="M50 25V35M50 65V75M28.5 37.5L37 42.5M63 57.5L71.5 62.5M28.5 62.5L37 57.5M63 42.5L71.5 37.5" stroke="white" stroke-width="2" stroke-linecap="round" opacity="0.8"/>
  </g>

  <text x="100" y="110" text-anchor="middle" fill="#0F172A" style="font-family: Arial, sans-serif; font-weight: 900; font-size: 24px; letter-spacing: -1px;">OMNILENS</text>
  
  <line x1="45" y1="125" x2="65" y2="125" stroke="#E2E8F0" stroke-width="1"/>
  <text x="100" y="128" text-anchor="middle" fill="#6366F1" style="font-family: Arial, sans-serif; font-weight: 800; font-size: 6px; letter-spacing: 3px;">PRO INTELLIGENCE</text>
  <line x1="135" y1="125" x2="155" y2="125" stroke="#E2E8F0" stroke-width="1"/>
</svg>